<svg width="58" height="58" viewBox="0 0 58 58" fill="none" xmlns="http://www.w3.org/2000/svg">
<path d="M43.5 26.4599H14.5V14.4327H43.5M39.875 40.8926C38.9135 40.8926 37.9915 40.5125 37.3117 39.8358C36.6319 39.1591 36.25 38.2414 36.25 37.2844C36.25 36.3275 36.6319 35.4097 37.3117 34.7331C37.9915 34.0564 38.9135 33.6763 39.875 33.6763C40.8364 33.6763 41.7584 34.0564 42.4382 34.7331C43.118 35.4097 43.5 36.3275 43.5 37.2844C43.5 38.2414 43.118 39.1591 42.4382 39.8358C41.7584 40.5125 40.8364 40.8926 39.875 40.8926ZM18.125 40.8926C17.1635 40.8926 16.2415 40.5125 15.5617 39.8358C14.8819 39.1591 14.5 38.2414 14.5 37.2844C14.5 36.3275 14.8819 35.4097 15.5617 34.7331C16.2415 34.0564 17.1635 33.6763 18.125 33.6763C19.0864 33.6763 20.0084 34.0564 20.6882 34.7331C21.368 35.4097 21.75 36.3275 21.75 37.2844C21.75 38.2414 21.368 39.1591 20.6882 39.8358C20.0084 40.5125 19.0864 40.8926 18.125 40.8926ZM9.66663 38.4872C9.66663 40.604 10.6091 42.5043 12.0833 43.8273V48.109C12.0833 48.7469 12.3379 49.3588 12.7911 49.8099C13.2443 50.261 13.859 50.5144 14.5 50.5144H16.9166C17.5576 50.5144 18.1723 50.261 18.6255 49.8099C19.0787 49.3588 19.3333 48.7469 19.3333 48.109V45.7035H38.6666V48.109C38.6666 48.7469 38.9212 49.3588 39.3744 49.8099C39.8277 50.261 40.4424 50.5144 41.0833 50.5144H43.5C44.1409 50.5144 44.7556 50.261 45.2088 49.8099C45.662 49.3588 45.9166 48.7469 45.9166 48.109V43.8273C47.3908 42.5043 48.3333 40.604 48.3333 38.4872V14.4327C48.3333 6.01361 39.6816 4.81088 29 4.81088C18.3183 4.81088 9.66663 6.01361 9.66663 14.4327V38.4872Z" fill="#7477FF"/>
</svg>